<?xml version="1.0" encoding="UTF-8" standalone="no"?>
<!DOCTYPE svg PUBLIC "-//W3C//DTD SVG 1.1//EN"
 "http://www.w3.org/Graphics/SVG/1.1/DTD/svg11.dtd">
<!-- Generated by graphviz version 8.0.5 (0)
 -->
<!-- Title: source tree Pages: 1 -->
<svg width="576pt" height="719pt"
 viewBox="0.00 0.00 576.00 719.46" xmlns="http://www.w3.org/2000/svg" xmlns:xlink="http://www.w3.org/1999/xlink">
<g id="graph0" class="graph" transform="scale(0.262648 0.262648) rotate(0) translate(4 2735.25)">
<title>source tree</title>
<polygon fill="white" stroke="none" points="-4,4 -4,-2735.25 2189.05,-2735.25 2189.05,4 -4,4"/>
<!-- base.h -->
<g id="node1" class="node">
<title>base.h</title>
<ellipse fill="none" stroke="black" cx="865.18" cy="-1484" rx="34.46" ry="18"/>
<text text-anchor="middle" x="865.18" y="-1478.95" font-family="Times,serif" font-size="14.00">base.h</text>
</g>
<!-- ansi.h -->
<g id="node2" class="node">
<title>ansi.h</title>
<ellipse fill="none" stroke="black" cx="983.18" cy="-534" rx="32.93" ry="18"/>
<text text-anchor="middle" x="983.18" y="-528.95" font-family="Times,serif" font-size="14.00">ansi.h</text>
</g>
<!-- base.h&#45;&gt;ansi.h -->
<g id="edge1" class="edge">
<title>base.h&#45;&gt;ansi.h</title>
<path fill="none" stroke="black" d="M878.15,-1467.02C905.24,-1432.58 967.47,-1347.78 993.18,-1265 1074.63,-1002.73 1011.04,-661.48 989.58,-562.82"/>
<polygon fill="black" stroke="black" points="992.82,-562.27 987.24,-553.27 985.99,-563.79 992.82,-562.27"/>
</g>
<!-- types.h -->
<g id="node4" class="node">
<title>types.h</title>
<ellipse fill="none" stroke="black" cx="506.18" cy="-534" rx="37.53" ry="18"/>
<text text-anchor="middle" x="506.18" y="-528.95" font-family="Times,serif" font-size="14.00">types.h</text>
</g>
<!-- base.h&#45;&gt;types.h -->
<g id="edge68" class="edge">
<title>base.h&#45;&gt;types.h</title>
<path fill="none" stroke="black" d="M863.71,-1465.67C855.21,-1367.8 810.14,-883.86 740.18,-754 690.99,-662.69 589.37,-588.25 537.76,-554.51"/>
<polygon fill="black" stroke="black" points="540.02,-551.17 529.72,-548.69 536.23,-557.05 540.02,-551.17"/>
</g>
<!-- memory.h -->
<g id="node14" class="node">
<title>memory.h</title>
<ellipse fill="none" stroke="black" cx="575.18" cy="-1009" rx="49.3" ry="18"/>
<text text-anchor="middle" x="575.18" y="-1003.95" font-family="Times,serif" font-size="14.00">memory.h</text>
</g>
<!-- base.h&#45;&gt;memory.h -->
<g id="edge40" class="edge">
<title>base.h&#45;&gt;memory.h</title>
<path fill="none" stroke="black" d="M857.4,-1466.22C838.01,-1424.88 785.31,-1315.24 732.18,-1229 687.22,-1156.02 626.19,-1075.32 595.13,-1035.34"/>
<polygon fill="black" stroke="black" points="597.34,-1033.49 588.43,-1027.76 591.82,-1037.8 597.34,-1033.49"/>
</g>
<!-- compiler.h -->
<g id="node19" class="node">
<title>compiler.h</title>
<ellipse fill="none" stroke="black" cx="685.18" cy="-297" rx="50.84" ry="18"/>
<text text-anchor="middle" x="685.18" y="-291.95" font-family="Times,serif" font-size="14.00">compiler.h</text>
</g>
<!-- base.h&#45;&gt;compiler.h -->
<g id="edge41" class="edge">
<title>base.h&#45;&gt;compiler.h</title>
<path fill="none" stroke="black" d="M865.18,-1465.82C865.18,-1404.15 865.18,-1188.2 865.18,-1010 865.18,-1010 865.18,-1010 865.18,-771 865.18,-589.32 747.75,-392.55 702.58,-323.59"/>
<polygon fill="black" stroke="black" points="705.15,-322.13 696.71,-315.72 699.32,-325.99 705.15,-322.13"/>
</g>
<!-- system.h -->
<g id="node20" class="node">
<title>system.h</title>
<ellipse fill="none" stroke="black" cx="685.18" cy="-59" rx="44.19" ry="18"/>
<text text-anchor="middle" x="685.18" y="-53.95" font-family="Times,serif" font-size="14.00">system.h</text>
</g>
<!-- base.h&#45;&gt;system.h -->
<g id="edge66" class="edge">
<title>base.h&#45;&gt;system.h</title>
<path fill="none" stroke="black" d="M879.19,-1467.14C928.23,-1409.94 1089.18,-1207.17 1089.18,-1010 1089.18,-1010 1089.18,-1010 1089.18,-533 1089.18,-307.22 819.72,-134.74 720.93,-79.1"/>
<polygon fill="black" stroke="black" points="722.81,-75.58 712.37,-73.78 719.41,-81.7 722.81,-75.58"/>
</g>
<!-- platform.h -->
<g id="node27" class="node">
<title>platform.h</title>
<ellipse fill="none" stroke="black" cx="506.18" cy="-772" rx="50.33" ry="18"/>
<text text-anchor="middle" x="506.18" y="-766.95" font-family="Times,serif" font-size="14.00">platform.h</text>
</g>
<!-- base.h&#45;&gt;platform.h -->
<g id="edge19" class="edge">
<title>base.h&#45;&gt;platform.h</title>
<path fill="none" stroke="black" d="M858.32,-1465.87C841.72,-1424.66 797.67,-1316.87 756.18,-1229 705.33,-1121.33 690.5,-1095.36 633.18,-991 594.71,-920.95 546.56,-840.02 522.07,-799.29"/>
<polygon fill="black" stroke="black" points="524.68,-797.83 516.52,-791.07 518.68,-801.44 524.68,-797.83"/>
</g>
<!-- flags.h -->
<g id="node28" class="node">
<title>flags.h</title>
<ellipse fill="none" stroke="black" cx="929.18" cy="-1247" rx="36" ry="18"/>
<text text-anchor="middle" x="929.18" y="-1241.95" font-family="Times,serif" font-size="14.00">flags.h</text>
</g>
<!-- base.h&#45;&gt;flags.h -->
<g id="edge20" class="edge">
<title>base.h&#45;&gt;flags.h</title>
<path fill="none" stroke="black" d="M869.88,-1465.72C880.86,-1425.4 908.26,-1324.83 921.61,-1275.78"/>
<polygon fill="black" stroke="black" points="925.21,-1276.87 924.47,-1266.31 918.46,-1275.03 925.21,-1276.87"/>
</g>
<!-- fio.h -->
<g id="node31" class="node">
<title>fio.h</title>
<ellipse fill="none" stroke="black" cx="295.18" cy="-1247" rx="28.32" ry="18"/>
<text text-anchor="middle" x="295.18" y="-1241.95" font-family="Times,serif" font-size="14.00">fio.h</text>
</g>
<!-- base.h&#45;&gt;fio.h -->
<g id="edge23" class="edge">
<title>base.h&#45;&gt;fio.h</title>
<path fill="none" stroke="black" d="M838.83,-1472.14C745.69,-1433.74 432.04,-1304.42 328.59,-1261.77"/>
<polygon fill="black" stroke="black" points="330.27,-1258.27 319.69,-1257.69 327.6,-1264.74 330.27,-1258.27"/>
</g>
<!-- logging.h -->
<g id="node32" class="node">
<title>logging.h</title>
<ellipse fill="none" stroke="black" cx="939.18" cy="-772" rx="46.23" ry="18"/>
<text text-anchor="middle" x="939.18" y="-766.95" font-family="Times,serif" font-size="14.00">logging.h</text>
</g>
<!-- base.h&#45;&gt;logging.h -->
<g id="edge81" class="edge">
<title>base.h&#45;&gt;logging.h</title>
<path fill="none" stroke="black" d="M876.11,-1466.66C898.98,-1431.52 951.59,-1345.46 974.18,-1265 1007.19,-1147.44 1009.23,-1112.17 994.18,-991 985.5,-921.1 961.73,-841.42 948.45,-800.49"/>
<polygon fill="black" stroke="black" points="951.53,-799.65 945.09,-791.24 944.88,-801.83 951.53,-799.65"/>
</g>
<!-- math.h -->
<g id="node43" class="node">
<title>math.h</title>
<ellipse fill="none" stroke="black" cx="570.18" cy="-1247" rx="37.02" ry="18"/>
<text text-anchor="middle" x="570.18" y="-1241.95" font-family="Times,serif" font-size="14.00">math.h</text>
</g>
<!-- base.h&#45;&gt;math.h -->
<g id="edge86" class="edge">
<title>base.h&#45;&gt;math.h</title>
<path fill="none" stroke="black" d="M846.72,-1468.3C796.45,-1428.25 656.88,-1317.07 597.49,-1269.76"/>
<polygon fill="black" stroke="black" points="600.01,-1266.49 590,-1263 595.65,-1271.97 600.01,-1266.49"/>
</g>
<!-- tight_b8.h -->
<g id="node3" class="node">
<title>tight_b8.h</title>
<ellipse fill="none" stroke="black" cx="428.18" cy="-1247" rx="48.79" ry="18"/>
<text text-anchor="middle" x="428.18" y="-1241.95" font-family="Times,serif" font-size="14.00">tight_b8.h</text>
</g>
<!-- tight_b8.h&#45;&gt;types.h -->
<g id="edge2" class="edge">
<title>tight_b8.h&#45;&gt;types.h</title>
<path fill="none" stroke="black" d="M427.46,-1228.87C425.08,-1165.47 419.17,-938.23 447.18,-754 457.89,-683.57 482.92,-603.31 496.69,-562.29"/>
<polygon fill="black" stroke="black" points="500.27,-563.63 500.17,-553.04 493.64,-561.38 500.27,-563.63"/>
</g>
<!-- tight_b8.h&#45;&gt;memory.h -->
<g id="edge69" class="edge">
<title>tight_b8.h&#45;&gt;memory.h</title>
<path fill="none" stroke="black" d="M438.75,-1229.03C464.12,-1188.29 528.61,-1084.76 558.94,-1036.06"/>
<polygon fill="black" stroke="black" points="562.39,-1038.16 564.7,-1027.82 556.44,-1034.46 562.39,-1038.16"/>
</g>
<!-- types.h&#45;&gt;compiler.h -->
<g id="edge89" class="edge">
<title>types.h&#45;&gt;compiler.h</title>
<path fill="none" stroke="black" d="M518.48,-516.85C549.05,-476.71 628.67,-372.19 665.7,-323.57"/>
<polygon fill="black" stroke="black" points="669.03,-325.97 672.31,-315.89 663.47,-321.73 669.03,-325.97"/>
</g>
<!-- vc_enum_helpers.c -->
<g id="node5" class="node">
<title>vc_enum_helpers.c</title>
<ellipse fill="none" stroke="black" cx="1372.18" cy="-2434" rx="83.08" ry="18"/>
<text text-anchor="middle" x="1372.18" y="-2428.95" font-family="Times,serif" font-size="14.00">vc_enum_helpers.c</text>
</g>
<!-- vulcain.h -->
<g id="node6" class="node">
<title>vulcain.h</title>
<ellipse fill="none" stroke="black" cx="889.18" cy="-2197" rx="45.21" ry="18"/>
<text text-anchor="middle" x="889.18" y="-2191.95" font-family="Times,serif" font-size="14.00">vulcain.h</text>
</g>
<!-- vc_enum_helpers.c&#45;&gt;vulcain.h -->
<g id="edge3" class="edge">
<title>vc_enum_helpers.c&#45;&gt;vulcain.h</title>
<path fill="none" stroke="black" d="M1339.36,-2417.03C1252.79,-2374.91 1018.62,-2260.98 926.82,-2216.32"/>
<polygon fill="black" stroke="black" points="928.64,-2212.82 918.12,-2211.59 925.58,-2219.12 928.64,-2212.82"/>
</g>
<!-- vulcain.h&#45;&gt;base.h -->
<g id="edge44" class="edge">
<title>vulcain.h&#45;&gt;base.h</title>
<path fill="none" stroke="black" d="M888.6,-2178.78C885.42,-2084.57 870.12,-1631.54 866.13,-1513.29"/>
<polygon fill="black" stroke="black" points="869.6,-1513.19 865.76,-1503.31 862.6,-1513.43 869.6,-1513.19"/>
</g>
<!-- hashmap.h -->
<g id="node7" class="node">
<title>hashmap.h</title>
<ellipse fill="none" stroke="black" cx="419.18" cy="-1959" rx="51.35" ry="18"/>
<text text-anchor="middle" x="419.18" y="-1953.95" font-family="Times,serif" font-size="14.00">hashmap.h</text>
</g>
<!-- vulcain.h&#45;&gt;hashmap.h -->
<g id="edge4" class="edge">
<title>vulcain.h&#45;&gt;hashmap.h</title>
<path fill="none" stroke="black" d="M861.88,-2182.29C782.19,-2142.28 549.71,-2025.55 457.51,-1979.25"/>
<polygon fill="black" stroke="black" points="459.25,-1975.7 448.74,-1974.34 456.11,-1981.96 459.25,-1975.7"/>
</g>
<!-- vc_handles.h -->
<g id="node16" class="node">
<title>vc_handles.h</title>
<ellipse fill="none" stroke="black" cx="586.18" cy="-1959" rx="59.54" ry="18"/>
<text text-anchor="middle" x="586.18" y="-1953.95" font-family="Times,serif" font-size="14.00">vc_handles.h</text>
</g>
<!-- vulcain.h&#45;&gt;vc_handles.h -->
<g id="edge46" class="edge">
<title>vulcain.h&#45;&gt;vc_handles.h</title>
<path fill="none" stroke="black" d="M869.3,-2180.52C817.22,-2139.95 676.63,-2030.45 615.37,-1982.74"/>
<polygon fill="black" stroke="black" points="617.97,-1979.55 607.93,-1976.16 613.67,-1985.07 617.97,-1979.55"/>
</g>
<!-- vc_windowing_systems.h -->
<g id="node25" class="node">
<title>vc_windowing_systems.h</title>
<ellipse fill="none" stroke="black" cx="1021.18" cy="-1959" rx="107.14" ry="18"/>
<text text-anchor="middle" x="1021.18" y="-1953.95" font-family="Times,serif" font-size="14.00">vc_windowing_systems.h</text>
</g>
<!-- vulcain.h&#45;&gt;vc_windowing_systems.h -->
<g id="edge42" class="edge">
<title>vulcain.h&#45;&gt;vc_windowing_systems.h</title>
<path fill="none" stroke="black" d="M898.67,-2179.03C921.35,-2138.47 978.84,-2035.69 1006.23,-1986.73"/>
<polygon fill="black" stroke="black" points="1009.77,-1988.57 1011.59,-1978.14 1003.66,-1985.15 1009.77,-1988.57"/>
</g>
<!-- darray.h -->
<g id="node33" class="node">
<title>darray.h</title>
<ellipse fill="none" stroke="black" cx="405.18" cy="-1722" rx="41.12" ry="18"/>
<text text-anchor="middle" x="405.18" y="-1716.95" font-family="Times,serif" font-size="14.00">darray.h</text>
</g>
<!-- vulcain.h&#45;&gt;darray.h -->
<g id="edge79" class="edge">
<title>vulcain.h&#45;&gt;darray.h</title>
<path fill="none" stroke="black" d="M875.26,-2179.61C839.9,-2138.23 743.16,-2026.78 655.18,-1941 577.71,-1865.47 479.28,-1783.38 432.4,-1745.04"/>
<polygon fill="black" stroke="black" points="434.96,-1741.8 424.99,-1738.19 430.53,-1747.22 434.96,-1741.8"/>
</g>
<!-- hashmap.h&#45;&gt;base.h -->
<g id="edge76" class="edge">
<title>hashmap.h&#45;&gt;base.h</title>
<path fill="none" stroke="black" d="M420.36,-1940.63C424.18,-1896.51 439.6,-1778.37 498.18,-1704 587.08,-1591.13 751.47,-1523.71 826.28,-1497.56"/>
<polygon fill="black" stroke="black" points="826.91,-1500.7 835.23,-1494.14 824.63,-1494.08 826.91,-1500.7"/>
</g>
<!-- hashmap.h&#45;&gt;darray.h -->
<g id="edge29" class="edge">
<title>hashmap.h&#45;&gt;darray.h</title>
<path fill="none" stroke="black" d="M418.15,-1940.72C415.75,-1900.49 409.78,-1800.25 406.85,-1751.09"/>
<polygon fill="black" stroke="black" points="410.3,-1751.08 406.21,-1741.31 403.31,-1751.5 410.3,-1751.08"/>
</g>
<!-- vc_buffers.c -->
<g id="node8" class="node">
<title>vc_buffers.c</title>
<ellipse fill="none" stroke="black" cx="763.18" cy="-2672" rx="56.98" ry="18"/>
<text text-anchor="middle" x="763.18" y="-2666.95" font-family="Times,serif" font-size="14.00">vc_buffers.c</text>
</g>
<!-- vc_buffers.c&#45;&gt;vulcain.h -->
<g id="edge32" class="edge">
<title>vc_buffers.c&#45;&gt;vulcain.h</title>
<path fill="none" stroke="black" d="M771.67,-2653.88C789.31,-2617.59 830.01,-2529.9 851.18,-2452 873,-2371.68 883.2,-2273.43 887.13,-2226.12"/>
<polygon fill="black" stroke="black" points="890.69,-2226.47 887.99,-2216.23 883.71,-2225.92 890.69,-2226.47"/>
</g>
<!-- vc_managed_types.h -->
<g id="node9" class="node">
<title>vc_managed_types.h</title>
<ellipse fill="none" stroke="black" cx="1068.18" cy="-2434" rx="89.23" ry="18"/>
<text text-anchor="middle" x="1068.18" y="-2428.95" font-family="Times,serif" font-size="14.00">vc_managed_types.h</text>
</g>
<!-- vc_buffers.c&#45;&gt;vc_managed_types.h -->
<g id="edge5" class="edge">
<title>vc_buffers.c&#45;&gt;vc_managed_types.h</title>
<path fill="none" stroke="black" d="M784.14,-2654.78C837.12,-2613.79 976.53,-2505.91 1038.15,-2458.23"/>
<polygon fill="black" stroke="black" points="1039.89,-2460.54 1045.66,-2451.65 1035.61,-2455 1039.89,-2460.54"/>
</g>
<!-- vc_managed_types.h&#45;&gt;base.h -->
<g id="edge77" class="edge">
<title>vc_managed_types.h&#45;&gt;base.h</title>
<path fill="none" stroke="black" d="M1075.59,-2415.68C1101.97,-2351.59 1187.14,-2122.27 1137.18,-1941 1086.65,-1757.67 940.92,-1573.69 886.24,-1509.16"/>
<polygon fill="black" stroke="black" points="888.31,-1507.19 879.15,-1501.86 882.99,-1511.74 888.31,-1507.19"/>
</g>
<!-- vc_managed_types.h&#45;&gt;vulcain.h -->
<g id="edge61" class="edge">
<title>vc_managed_types.h&#45;&gt;vulcain.h</title>
<path fill="none" stroke="black" d="M1055.02,-2415.72C1023.77,-2374.69 944.99,-2271.27 908.4,-2223.24"/>
<polygon fill="black" stroke="black" points="910.72,-2221.51 901.88,-2215.67 905.15,-2225.75 910.72,-2221.51"/>
</g>
<!-- test.h -->
<g id="node10" class="node">
<title>test.h</title>
<ellipse fill="none" stroke="black" cx="1580.18" cy="-1722" rx="30.88" ry="18"/>
<text text-anchor="middle" x="1580.18" y="-1716.95" font-family="Times,serif" font-size="14.00">test.h</text>
</g>
<!-- test.h&#45;&gt;base.h -->
<g id="edge6" class="edge">
<title>test.h&#45;&gt;base.h</title>
<path fill="none" stroke="black" d="M1555.02,-1711.27C1548.58,-1708.84 1541.64,-1706.27 1535.18,-1704 1297.44,-1620.29 1008.56,-1529.52 904.72,-1497.24"/>
<polygon fill="black" stroke="black" points="905.98,-1493.65 895.4,-1494.03 903.91,-1500.34 905.98,-1493.65"/>
</g>
<!-- vc_descriptors.c -->
<g id="node11" class="node">
<title>vc_descriptors.c</title>
<ellipse fill="none" stroke="black" cx="1852.18" cy="-2672" rx="71.31" ry="18"/>
<text text-anchor="middle" x="1852.18" y="-2666.95" font-family="Times,serif" font-size="14.00">vc_descriptors.c</text>
</g>
<!-- vc_descriptors.c&#45;&gt;vulcain.h -->
<g id="edge24" class="edge">
<title>vc_descriptors.c&#45;&gt;vulcain.h</title>
<path fill="none" stroke="black" d="M1803.71,-2658.54C1701.86,-2631.09 1460.16,-2559.19 1280.18,-2452 1259.05,-2439.42 1257.99,-2430.55 1238.18,-2416 1128.1,-2335.15 987.79,-2253.47 923.79,-2217.3"/>
<polygon fill="black" stroke="black" points="925.99,-2213.95 915.56,-2212.09 922.55,-2220.05 925.99,-2213.95"/>
</g>
<!-- vc_descriptors.c&#45;&gt;vc_managed_types.h -->
<g id="edge7" class="edge">
<title>vc_descriptors.c&#45;&gt;vc_managed_types.h</title>
<path fill="none" stroke="black" d="M1807.5,-2657.55C1673.86,-2617.32 1277.25,-2497.94 1126.88,-2452.67"/>
<polygon fill="black" stroke="black" points="1128.07,-2449.07 1117.48,-2449.54 1126.05,-2455.77 1128.07,-2449.07"/>
</g>
<!-- vc_images.c -->
<g id="node12" class="node">
<title>vc_images.c</title>
<ellipse fill="none" stroke="black" cx="1999.18" cy="-2672" rx="57.49" ry="18"/>
<text text-anchor="middle" x="1999.18" y="-2666.95" font-family="Times,serif" font-size="14.00">vc_images.c</text>
</g>
<!-- vc_images.c&#45;&gt;base.h -->
<g id="edge8" class="edge">
<title>vc_images.c&#45;&gt;base.h</title>
<path fill="none" stroke="black" d="M1964.8,-2657.16C1855.2,-2610.51 1521.18,-2447.84 1521.18,-2198 1521.18,-2198 1521.18,-2198 1521.18,-1958 1521.18,-1654.21 1052.59,-1526.06 907.49,-1493.66"/>
<polygon fill="black" stroke="black" points="908.34,-1490.04 897.82,-1491.32 906.84,-1496.88 908.34,-1490.04"/>
</g>
<!-- vc_images.c&#45;&gt;vulcain.h -->
<g id="edge83" class="edge">
<title>vc_images.c&#45;&gt;vulcain.h</title>
<path fill="none" stroke="black" d="M1960.98,-2658.14C1875.82,-2628.59 1665.42,-2550.75 1507.18,-2452 1486.03,-2438.8 1485.69,-2428.59 1464.18,-2416 1368.71,-2360.1 1050.98,-2251.84 933.41,-2212.63"/>
<polygon fill="black" stroke="black" points="934.92,-2209.11 924.33,-2209.27 932.71,-2215.75 934.92,-2209.11"/>
</g>
<!-- vc_images.c&#45;&gt;vc_managed_types.h -->
<g id="edge60" class="edge">
<title>vc_images.c&#45;&gt;vc_managed_types.h</title>
<path fill="none" stroke="black" d="M1955.57,-2659.93C1947.78,-2657.96 1939.74,-2655.92 1932.18,-2654 1633.29,-2578.2 1276.23,-2487.72 1132.64,-2451.33"/>
<polygon fill="black" stroke="black" points="1133.82,-2447.77 1123.27,-2448.7 1132.1,-2454.55 1133.82,-2447.77"/>
</g>
<!-- pool_allocator.h -->
<g id="node13" class="node">
<title>pool_allocator.h</title>
<ellipse fill="none" stroke="black" cx="141.18" cy="-1722" rx="70.8" ry="18"/>
<text text-anchor="middle" x="141.18" y="-1716.95" font-family="Times,serif" font-size="14.00">pool_allocator.h</text>
</g>
<!-- pool_allocator.h&#45;&gt;base.h -->
<g id="edge9" class="edge">
<title>pool_allocator.h&#45;&gt;base.h</title>
<path fill="none" stroke="black" d="M183.5,-1707.21C312.81,-1665.05 701.49,-1538.36 826.2,-1497.7"/>
<polygon fill="black" stroke="black" points="827,-1500.8 835.42,-1494.37 824.83,-1494.14 827,-1500.8"/>
</g>
<!-- pool_allocator.h&#45;&gt;types.h -->
<g id="edge63" class="edge">
<title>pool_allocator.h&#45;&gt;types.h</title>
<path fill="none" stroke="black" d="M144.99,-1703.92C158.35,-1642.6 202.18,-1427.67 202.18,-1248 202.18,-1248 202.18,-1248 202.18,-1008 202.18,-804.45 403.88,-618.67 478.69,-556.77"/>
<polygon fill="black" stroke="black" points="480.64,-558.88 486.16,-549.84 476.2,-553.46 480.64,-558.88"/>
</g>
<!-- memory.h&#45;&gt;types.h -->
<g id="edge72" class="edge">
<title>memory.h&#45;&gt;types.h</title>
<path fill="none" stroke="black" d="M596.15,-992.44C645.43,-953.85 761.53,-849.93 722.18,-754 684.58,-662.33 588.02,-588.5 537.71,-554.8"/>
<polygon fill="black" stroke="black" points="539.87,-551.37 529.59,-548.79 536.02,-557.22 539.87,-551.37"/>
</g>
<!-- memory_tags.h -->
<g id="node15" class="node">
<title>memory_tags.h</title>
<ellipse fill="none" stroke="black" cx="644.18" cy="-772" rx="69.26" ry="18"/>
<text text-anchor="middle" x="644.18" y="-766.95" font-family="Times,serif" font-size="14.00">memory_tags.h</text>
</g>
<!-- memory.h&#45;&gt;memory_tags.h -->
<g id="edge10" class="edge">
<title>memory.h&#45;&gt;memory_tags.h</title>
<path fill="none" stroke="black" d="M580.25,-990.72C592.09,-950.4 621.62,-849.83 636.02,-800.78"/>
<polygon fill="black" stroke="black" points="639.64,-801.89 639.1,-791.31 632.92,-799.91 639.64,-801.89"/>
</g>
<!-- memory.h&#45;&gt;platform.h -->
<g id="edge87" class="edge">
<title>memory.h&#45;&gt;platform.h</title>
<path fill="none" stroke="black" d="M566.51,-991.1C551,-951.07 521.09,-850.14 509.81,-800.9"/>
<polygon fill="black" stroke="black" points="513.07,-800.41 507.53,-791.38 506.23,-801.9 513.07,-800.41"/>
</g>
<!-- memory.h&#45;&gt;logging.h -->
<g id="edge71" class="edge">
<title>memory.h&#45;&gt;logging.h</title>
<path fill="none" stroke="black" d="M598.78,-992.76C661.95,-951.98 834.97,-840.28 907.02,-793.76"/>
<polygon fill="black" stroke="black" points="908.6,-796.26 915.1,-787.9 904.8,-790.38 908.6,-796.26"/>
</g>
<!-- vc_handles.h&#45;&gt;base.h -->
<g id="edge11" class="edge">
<title>vc_handles.h&#45;&gt;base.h</title>
<path fill="none" stroke="black" d="M591.5,-1940.58C604.82,-1898.29 642.07,-1787.49 691.18,-1704 736.61,-1626.76 806.96,-1547.07 842.7,-1508.61"/>
<polygon fill="black" stroke="black" points="844.91,-1511.3 849.18,-1501.61 839.79,-1506.52 844.91,-1511.3"/>
</g>
<!-- vc_handles.h&#45;&gt;darray.h -->
<g id="edge84" class="edge">
<title>vc_handles.h&#45;&gt;darray.h</title>
<path fill="none" stroke="black" d="M573.16,-1941.1C541.71,-1900.27 461.46,-1796.07 424.43,-1748"/>
<polygon fill="black" stroke="black" points="426.71,-1746.22 417.84,-1740.43 421.17,-1750.49 426.71,-1746.22"/>
</g>
<!-- handle_allocator.h -->
<g id="node35" class="node">
<title>handle_allocator.h</title>
<ellipse fill="none" stroke="black" cx="779.18" cy="-1722" rx="78.99" ry="18"/>
<text text-anchor="middle" x="779.18" y="-1716.95" font-family="Times,serif" font-size="14.00">handle_allocator.h</text>
</g>
<!-- vc_handles.h&#45;&gt;handle_allocator.h -->
<g id="edge59" class="edge">
<title>vc_handles.h&#45;&gt;handle_allocator.h</title>
<path fill="none" stroke="black" d="M600.06,-1941.1C633.5,-1900.38 718.69,-1796.65 758.32,-1748.4"/>
<polygon fill="black" stroke="black" points="761.52,-1751.01 765.16,-1741.06 756.11,-1746.57 761.52,-1751.01"/>
</g>
<!-- str.h -->
<g id="node17" class="node">
<title>str.h</title>
<ellipse fill="none" stroke="black" cx="1211.18" cy="-1722" rx="27" ry="18"/>
<text text-anchor="middle" x="1211.18" y="-1716.95" font-family="Times,serif" font-size="14.00">str.h</text>
</g>
<!-- str.h&#45;&gt;base.h -->
<g id="edge12" class="edge">
<title>str.h&#45;&gt;base.h</title>
<path fill="none" stroke="black" d="M1193.06,-1708.64C1136.62,-1670.15 963.59,-1552.13 894.31,-1504.87"/>
<polygon fill="black" stroke="black" points="896.48,-1501.43 886.24,-1498.69 892.53,-1507.21 896.48,-1501.43"/>
</g>
<!-- vc_sync_objects.c -->
<g id="node18" class="node">
<title>vc_sync_objects.c</title>
<ellipse fill="none" stroke="black" cx="610.18" cy="-2672" rx="78.48" ry="18"/>
<text text-anchor="middle" x="610.18" y="-2666.95" font-family="Times,serif" font-size="14.00">vc_sync_objects.c</text>
</g>
<!-- vc_sync_objects.c&#45;&gt;vulcain.h -->
<g id="edge37" class="edge">
<title>vc_sync_objects.c&#45;&gt;vulcain.h</title>
<path fill="none" stroke="black" d="M632.04,-2654.25C674.41,-2620.62 767.98,-2540.48 818.18,-2452 860.75,-2376.97 879.11,-2274.81 885.85,-2226.09"/>
<polygon fill="black" stroke="black" points="889.41,-2226.81 887.25,-2216.44 882.47,-2225.9 889.41,-2226.81"/>
</g>
<!-- vc_sync_objects.c&#45;&gt;vc_managed_types.h -->
<g id="edge13" class="edge">
<title>vc_sync_objects.c&#45;&gt;vc_managed_types.h</title>
<path fill="none" stroke="black" d="M640.94,-2655.15C721.07,-2613.86 936.29,-2502.96 1026.98,-2456.23"/>
<polygon fill="black" stroke="black" points="1028.36,-2458.94 1035.64,-2451.25 1025.15,-2452.72 1028.36,-2458.94"/>
</g>
<!-- vc_sync_objects.c&#45;&gt;vc_handles.h -->
<g id="edge39" class="edge">
<title>vc_sync_objects.c&#45;&gt;vc_handles.h</title>
<path fill="none" stroke="black" d="M613.19,-2653.94C623.92,-2590.78 658.47,-2364.27 637.18,-2179 629.14,-2109.01 607.09,-2028.88 594.78,-1987.67"/>
<polygon fill="black" stroke="black" points="597.9,-1986.92 591.66,-1978.36 591.21,-1988.95 597.9,-1986.92"/>
</g>
<!-- compiler.h&#45;&gt;system.h -->
<g id="edge14" class="edge">
<title>compiler.h&#45;&gt;system.h</title>
<path fill="none" stroke="black" d="M685.18,-278.65C685.18,-238.24 685.18,-137.58 685.18,-88.21"/>
<polygon fill="black" stroke="black" points="688.68,-88.38 685.18,-78.38 681.68,-88.38 688.68,-88.38"/>
</g>
<!-- lib.cpp -->
<g id="node21" class="node">
<title>lib.cpp</title>
<ellipse fill="none" stroke="black" cx="2111.18" cy="-2672" rx="36.51" ry="18"/>
<text text-anchor="middle" x="2111.18" y="-2666.95" font-family="Times,serif" font-size="14.00">lib.cpp</text>
</g>
<!-- vk_mem_alloc.h -->
<g id="node22" class="node">
<title>vk_mem_alloc.h</title>
<ellipse fill="none" stroke="black" cx="2111.18" cy="-2434" rx="73.87" ry="18"/>
<text text-anchor="middle" x="2111.18" y="-2428.95" font-family="Times,serif" font-size="14.00">vk_mem_alloc.h</text>
</g>
<!-- lib.cpp&#45;&gt;vk_mem_alloc.h -->
<g id="edge15" class="edge">
<title>lib.cpp&#45;&gt;vk_mem_alloc.h</title>
<path fill="none" stroke="black" d="M2111.18,-2653.65C2111.18,-2613.24 2111.18,-2512.58 2111.18,-2463.21"/>
<polygon fill="black" stroke="black" points="2114.68,-2463.38 2111.18,-2453.38 2107.68,-2463.38 2114.68,-2463.38"/>
</g>
<!-- vc_boilerplate.c -->
<g id="node23" class="node">
<title>vc_boilerplate.c</title>
<ellipse fill="none" stroke="black" cx="307.18" cy="-2672" rx="70.29" ry="18"/>
<text text-anchor="middle" x="307.18" y="-2666.95" font-family="Times,serif" font-size="14.00">vc_boilerplate.c</text>
</g>
<!-- vc_boilerplate.c&#45;&gt;vulcain.h -->
<g id="edge70" class="edge">
<title>vc_boilerplate.c&#45;&gt;vulcain.h</title>
<path fill="none" stroke="black" d="M327.55,-2654.44C415.24,-2583.18 760.62,-2302.48 861.42,-2220.56"/>
<polygon fill="black" stroke="black" points="863.31,-2222.72 868.86,-2213.7 858.9,-2217.29 863.31,-2222.72"/>
</g>
<!-- vc_boilerplate.c&#45;&gt;hashmap.h -->
<g id="edge31" class="edge">
<title>vc_boilerplate.c&#45;&gt;hashmap.h</title>
<path fill="none" stroke="black" d="M307.98,-2653.86C311.17,-2590.4 324.49,-2363 359.18,-2179 372.36,-2109.09 396.77,-2028.92 410.03,-1987.69"/>
<polygon fill="black" stroke="black" points="413.62,-1988.97 413.38,-1978.37 406.96,-1986.81 413.62,-1988.97"/>
</g>
<!-- vc_boilerplate.c&#45;&gt;vc_managed_types.h -->
<g id="edge78" class="edge">
<title>vc_boilerplate.c&#45;&gt;vc_managed_types.h</title>
<path fill="none" stroke="black" d="M350.83,-2657.46C480.67,-2617.2 864.53,-2498.15 1010.74,-2452.81"/>
<polygon fill="black" stroke="black" points="1011.34,-2455.98 1019.85,-2449.68 1009.26,-2449.3 1011.34,-2455.98"/>
</g>
<!-- vc_boilerplate.c&#45;&gt;vc_handles.h -->
<g id="edge16" class="edge">
<title>vc_boilerplate.c&#45;&gt;vc_handles.h</title>
<path fill="none" stroke="black" d="M332.44,-2654.76C380.08,-2622.59 482.49,-2545.71 528.18,-2452 606.69,-2290.96 595.84,-2066.24 589.06,-1988.1"/>
<polygon fill="black" stroke="black" points="592.47,-1987.89 588.07,-1978.25 585.5,-1988.53 592.47,-1987.89"/>
</g>
<!-- vc_win_glfw.c -->
<g id="node24" class="node">
<title>vc_win_glfw.c</title>
<ellipse fill="none" stroke="black" cx="1021.18" cy="-2197" rx="65.68" ry="18"/>
<text text-anchor="middle" x="1021.18" y="-2191.95" font-family="Times,serif" font-size="14.00">vc_win_glfw.c</text>
</g>
<!-- vc_win_glfw.c&#45;&gt;vc_windowing_systems.h -->
<g id="edge17" class="edge">
<title>vc_win_glfw.c&#45;&gt;vc_windowing_systems.h</title>
<path fill="none" stroke="black" d="M1021.18,-2178.65C1021.18,-2138.24 1021.18,-2037.58 1021.18,-1988.21"/>
<polygon fill="black" stroke="black" points="1024.68,-1988.38 1021.18,-1978.38 1017.68,-1988.38 1024.68,-1988.38"/>
</g>
<!-- vc_windowing_systems.h&#45;&gt;base.h -->
<g id="edge51" class="edge">
<title>vc_windowing_systems.h&#45;&gt;base.h</title>
<path fill="none" stroke="black" d="M1015.44,-1940.6C991.95,-1869.39 903.02,-1599.75 874.23,-1512.45"/>
<polygon fill="black" stroke="black" points="877.26,-1511.46 870.8,-1503.05 870.61,-1513.65 877.26,-1511.46"/>
</g>
<!-- vc_handles.c -->
<g id="node26" class="node">
<title>vc_handles.c</title>
<ellipse fill="none" stroke="black" cx="454.18" cy="-2672" rx="59.03" ry="18"/>
<text text-anchor="middle" x="454.18" y="-2666.95" font-family="Times,serif" font-size="14.00">vc_handles.c</text>
</g>
<!-- vc_handles.c&#45;&gt;vc_managed_types.h -->
<g id="edge36" class="edge">
<title>vc_handles.c&#45;&gt;vc_managed_types.h</title>
<path fill="none" stroke="black" d="M489.84,-2657.29C593.92,-2617.29 897.49,-2500.61 1018.02,-2454.28"/>
<polygon fill="black" stroke="black" points="1019,-2457.27 1027.08,-2450.41 1016.49,-2450.73 1019,-2457.27"/>
</g>
<!-- vc_handles.c&#45;&gt;vc_handles.h -->
<g id="edge18" class="edge">
<title>vc_handles.c&#45;&gt;vc_handles.h</title>
<path fill="none" stroke="black" d="M465.06,-2653.94C487.31,-2618.13 537.88,-2531.82 561.18,-2452 610.86,-2281.76 596.46,-2064.51 589.19,-1988.1"/>
<polygon fill="black" stroke="black" points="592.61,-1988.08 588.14,-1978.47 585.64,-1988.77 592.61,-1988.08"/>
</g>
<!-- platform.h&#45;&gt;types.h -->
<g id="edge80" class="edge">
<title>platform.h&#45;&gt;types.h</title>
<path fill="none" stroke="black" d="M506.18,-753.65C506.18,-713.24 506.18,-612.58 506.18,-563.21"/>
<polygon fill="black" stroke="black" points="509.68,-563.38 506.18,-553.38 502.68,-563.38 509.68,-563.38"/>
</g>
<!-- platform.h&#45;&gt;memory.h -->
<g id="edge28" class="edge">
<title>platform.h&#45;&gt;memory.h</title>
<path fill="none" stroke="black" d="M514.88,-789.99C530.41,-830.11 560.33,-931.06 571.57,-980.23"/>
<polygon fill="black" stroke="black" points="568.31,-980.69 573.84,-989.72 575.15,-979.21 568.31,-980.69"/>
</g>
<!-- memory.c -->
<g id="node29" class="node">
<title>memory.c</title>
<ellipse fill="none" stroke="black" cx="674.18" cy="-1247" rx="48.79" ry="18"/>
<text text-anchor="middle" x="674.18" y="-1241.95" font-family="Times,serif" font-size="14.00">memory.c</text>
</g>
<!-- memory.c&#45;&gt;memory.h -->
<g id="edge21" class="edge">
<title>memory.c&#45;&gt;memory.h</title>
<path fill="none" stroke="black" d="M667.06,-1229.03C650.08,-1188.56 607.11,-1086.12 586.52,-1037.03"/>
<polygon fill="black" stroke="black" points="589.46,-1036 582.37,-1028.14 583.01,-1038.71 589.46,-1036"/>
</g>
<!-- main.c -->
<g id="node30" class="node">
<title>main.c</title>
<ellipse fill="none" stroke="black" cx="482.18" cy="-2434" rx="36.51" ry="18"/>
<text text-anchor="middle" x="482.18" y="-2428.95" font-family="Times,serif" font-size="14.00">main.c</text>
</g>
<!-- main.c&#45;&gt;base.h -->
<g id="edge38" class="edge">
<title>main.c&#45;&gt;base.h</title>
<path fill="none" stroke="black" d="M482.26,-2415.61C482.81,-2339.06 486.88,-2031.77 517.18,-1941 582.64,-1744.87 770.82,-1566.94 839.6,-1506.69"/>
<polygon fill="black" stroke="black" points="841.5,-1508.81 846.75,-1499.61 836.91,-1503.52 841.5,-1508.81"/>
</g>
<!-- main.c&#45;&gt;vulcain.h -->
<g id="edge34" class="edge">
<title>main.c&#45;&gt;vulcain.h</title>
<path fill="none" stroke="black" d="M505.23,-2419.69C573.42,-2380.32 774.44,-2264.25 855.11,-2217.67"/>
<polygon fill="black" stroke="black" points="856.43,-2220.38 863.34,-2212.34 852.93,-2214.31 856.43,-2220.38"/>
</g>
<!-- main.c&#45;&gt;vc_handles.h -->
<g id="edge22" class="edge">
<title>main.c&#45;&gt;vc_handles.h</title>
<path fill="none" stroke="black" d="M486,-2415.6C501.64,-2344.46 560.83,-2075.29 580.08,-1987.72"/>
<polygon fill="black" stroke="black" points="583.7,-1988.57 582.43,-1978.05 576.86,-1987.07 583.7,-1988.57"/>
</g>
<!-- main.c&#45;&gt;fio.h -->
<g id="edge49" class="edge">
<title>main.c&#45;&gt;fio.h</title>
<path fill="none" stroke="black" d="M467.04,-2417.35C414.06,-2360.85 240.18,-2160.16 240.18,-1960 240.18,-1960 240.18,-1960 240.18,-1721 240.18,-1550.71 275.78,-1348.24 289.7,-1275.61"/>
<polygon fill="black" stroke="black" points="293.27,-1276.58 291.74,-1266.1 286.4,-1275.25 293.27,-1276.58"/>
</g>
<!-- fio.h&#45;&gt;types.h -->
<g id="edge48" class="edge">
<title>fio.h&#45;&gt;types.h</title>
<path fill="none" stroke="black" d="M293.24,-1228.66C286.68,-1163.56 269.23,-928.56 337.18,-754 369.3,-671.48 442.82,-594.22 481.44,-557.45"/>
<polygon fill="black" stroke="black" points="483.23,-560.63 488.13,-551.23 478.44,-555.53 483.23,-560.63"/>
</g>
<!-- fio.h&#45;&gt;memory.h -->
<g id="edge43" class="edge">
<title>fio.h&#45;&gt;memory.h</title>
<path fill="none" stroke="black" d="M311.85,-1231.94C358.55,-1192.58 490.93,-1081.01 548.21,-1032.73"/>
<polygon fill="black" stroke="black" points="550.03,-1034.93 555.42,-1025.81 545.51,-1029.58 550.03,-1034.93"/>
</g>
<!-- logging.h&#45;&gt;ansi.h -->
<g id="edge47" class="edge">
<title>logging.h&#45;&gt;ansi.h</title>
<path fill="none" stroke="black" d="M942.41,-753.65C949.96,-713.16 968.79,-612.15 977.98,-562.89"/>
<polygon fill="black" stroke="black" points="981.55,-563.85 979.94,-553.38 974.66,-562.57 981.55,-563.85"/>
</g>
<!-- logging.h&#45;&gt;types.h -->
<g id="edge25" class="edge">
<title>logging.h&#45;&gt;types.h</title>
<path fill="none" stroke="black" d="M913.07,-756.77C838.31,-716.02 623.46,-598.92 539.95,-553.41"/>
<polygon fill="black" stroke="black" points="541.89,-549.93 531.43,-548.22 538.54,-556.08 541.89,-549.93"/>
</g>
<!-- darray.h&#45;&gt;types.h -->
<g id="edge54" class="edge">
<title>darray.h&#45;&gt;types.h</title>
<path fill="none" stroke="black" d="M401.6,-1703.79C394.16,-1666.97 377.18,-1577.75 371.18,-1502 344.79,-1169.19 367.48,-1079.84 440.18,-754 455.82,-683.88 482.32,-603.5 496.51,-562.37"/>
<polygon fill="black" stroke="black" points="500.11,-563.68 500.09,-553.09 493.5,-561.39 500.11,-563.68"/>
</g>
<!-- darray.h&#45;&gt;memory.h -->
<g id="edge26" class="edge">
<title>darray.h&#45;&gt;memory.h</title>
<path fill="none" stroke="black" d="M412.75,-1704.07C428.66,-1667.78 465.7,-1579.54 485.18,-1502 515.03,-1383.13 501.59,-1349.47 524.18,-1229 537.17,-1159.73 557.2,-1079.25 567.88,-1037.82"/>
<polygon fill="black" stroke="black" points="571.51,-1038.77 570.63,-1028.21 564.73,-1037.01 571.51,-1038.77"/>
</g>
<!-- darray.h&#45;&gt;math.h -->
<g id="edge57" class="edge">
<title>darray.h&#45;&gt;math.h</title>
<path fill="none" stroke="black" d="M416.08,-1704.15C438.72,-1668.39 491.09,-1581.63 519.18,-1502 547.16,-1422.65 561.48,-1323.63 567.16,-1276.07"/>
<polygon fill="black" stroke="black" points="570.73,-1276.72 568.4,-1266.39 563.77,-1275.92 570.73,-1276.72"/>
</g>
<!-- vc_formats.c -->
<g id="node34" class="node">
<title>vc_formats.c</title>
<ellipse fill="none" stroke="black" cx="749.18" cy="-2434" rx="59.54" ry="18"/>
<text text-anchor="middle" x="749.18" y="-2428.95" font-family="Times,serif" font-size="14.00">vc_formats.c</text>
</g>
<!-- vc_formats.c&#45;&gt;vulcain.h -->
<g id="edge27" class="edge">
<title>vc_formats.c&#45;&gt;vulcain.h</title>
<path fill="none" stroke="black" d="M759.25,-2416.1C783.41,-2375.53 844.83,-2272.44 873.72,-2223.95"/>
<polygon fill="black" stroke="black" points="877.09,-2226.13 879.2,-2215.75 871.08,-2222.55 877.09,-2226.13"/>
</g>
<!-- handle_allocator.h&#45;&gt;base.h -->
<g id="edge30" class="edge">
<title>handle_allocator.h&#45;&gt;base.h</title>
<path fill="none" stroke="black" d="M785.5,-1703.65C800.32,-1662.97 837.4,-1561.23 855.26,-1512.23"/>
<polygon fill="black" stroke="black" points="858.83,-1513.65 858.96,-1503.06 852.25,-1511.26 858.83,-1513.65"/>
</g>
<!-- darray.c -->
<g id="node36" class="node">
<title>darray.c</title>
<ellipse fill="none" stroke="black" cx="309.18" cy="-1959" rx="40.6" ry="18"/>
<text text-anchor="middle" x="309.18" y="-1953.95" font-family="Times,serif" font-size="14.00">darray.c</text>
</g>
<!-- darray.c&#45;&gt;darray.h -->
<g id="edge33" class="edge">
<title>darray.c&#45;&gt;darray.h</title>
<path fill="none" stroke="black" d="M316.08,-1941.1C332.51,-1900.89 374.04,-1799.22 394.06,-1750.23"/>
<polygon fill="black" stroke="black" points="397.67,-1751.64 398.21,-1741.06 391.19,-1749 397.67,-1751.64"/>
</g>
<!-- logging.c -->
<g id="node37" class="node">
<title>logging.c</title>
<ellipse fill="none" stroke="black" cx="939.18" cy="-1009" rx="45.72" ry="18"/>
<text text-anchor="middle" x="939.18" y="-1003.95" font-family="Times,serif" font-size="14.00">logging.c</text>
</g>
<!-- logging.c&#45;&gt;logging.h -->
<g id="edge35" class="edge">
<title>logging.c&#45;&gt;logging.h</title>
<path fill="none" stroke="black" d="M939.18,-990.72C939.18,-950.49 939.18,-850.25 939.18,-801.09"/>
<polygon fill="black" stroke="black" points="942.68,-801.31 939.18,-791.31 935.68,-801.31 942.68,-801.31"/>
</g>
<!-- vc_framebuffer.c -->
<g id="node38" class="node">
<title>vc_framebuffer.c</title>
<ellipse fill="none" stroke="black" cx="913.18" cy="-2672" rx="74.89" ry="18"/>
<text text-anchor="middle" x="913.18" y="-2666.95" font-family="Times,serif" font-size="14.00">vc_framebuffer.c</text>
</g>
<!-- vc_framebuffer.c&#45;&gt;vulcain.h -->
<g id="edge45" class="edge">
<title>vc_framebuffer.c&#45;&gt;vulcain.h</title>
<path fill="none" stroke="black" d="M912.3,-2653.6C908.69,-2582.54 895.06,-2313.84 890.6,-2225.99"/>
<polygon fill="black" stroke="black" points="894.05,-2225.86 890.04,-2216.05 887.05,-2226.22 894.05,-2225.86"/>
</g>
<!-- vc_framebuffer.c&#45;&gt;vc_managed_types.h -->
<g id="edge67" class="edge">
<title>vc_framebuffer.c&#45;&gt;vc_managed_types.h</title>
<path fill="none" stroke="black" d="M924.33,-2654.03C951.07,-2613.3 1019.03,-2509.83 1051.03,-2461.11"/>
<polygon fill="black" stroke="black" points="1054.36,-2463.42 1056.92,-2453.14 1048.51,-2459.57 1054.36,-2463.42"/>
</g>
<!-- vc_descriptor_set_layout_bank.c -->
<g id="node39" class="node">
<title>vc_descriptor_set_layout_bank.c</title>
<ellipse fill="none" stroke="black" cx="1447.18" cy="-2672" rx="132.73" ry="18"/>
<text text-anchor="middle" x="1447.18" y="-2666.95" font-family="Times,serif" font-size="14.00">vc_descriptor_set_layout_bank.c</text>
</g>
<!-- vc_descriptor_set_layout_bank.c&#45;&gt;vulcain.h -->
<g id="edge56" class="edge">
<title>vc_descriptor_set_layout_bank.c&#45;&gt;vulcain.h</title>
<path fill="none" stroke="black" d="M1429.16,-2653.84C1385.16,-2612.09 1268.3,-2502.34 1166.18,-2416 1078.01,-2341.45 969.34,-2258.38 918.28,-2219.84"/>
<polygon fill="black" stroke="black" points="920.82,-2216.61 910.73,-2213.39 916.61,-2222.2 920.82,-2216.61"/>
</g>
<!-- vc_descriptor_set_layout_bank.c&#45;&gt;vc_managed_types.h -->
<g id="edge50" class="edge">
<title>vc_descriptor_set_layout_bank.c&#45;&gt;vc_managed_types.h</title>
<path fill="none" stroke="black" d="M1419.92,-2654.03C1352.7,-2612.17 1179,-2504.01 1103.78,-2457.17"/>
<polygon fill="black" stroke="black" points="1106.02,-2453.82 1095.68,-2451.5 1102.32,-2459.76 1106.02,-2453.82"/>
</g>
<!-- vc_render_passes.c -->
<g id="node40" class="node">
<title>vc_render_passes.c</title>
<ellipse fill="none" stroke="black" cx="1680.18" cy="-2672" rx="82.57" ry="18"/>
<text text-anchor="middle" x="1680.18" y="-2666.95" font-family="Times,serif" font-size="14.00">vc_render_passes.c</text>
</g>
<!-- vc_render_passes.c&#45;&gt;vulcain.h -->
<g id="edge52" class="edge">
<title>vc_render_passes.c&#45;&gt;vulcain.h</title>
<path fill="none" stroke="black" d="M1643.88,-2655.41C1567.91,-2622.17 1387.52,-2540.17 1247.18,-2452 1224.9,-2438 1221.4,-2431.56 1200.18,-2416 1098.92,-2341.78 976.25,-2257.37 920.03,-2218.99"/>
<polygon fill="black" stroke="black" points="922.51,-2215.76 912.27,-2213.01 918.56,-2221.54 922.51,-2215.76"/>
</g>
<!-- vc_render_passes.c&#45;&gt;vc_managed_types.h -->
<g id="edge62" class="edge">
<title>vc_render_passes.c&#45;&gt;vc_managed_types.h</title>
<path fill="none" stroke="black" d="M1640.96,-2655.88C1533.94,-2614.61 1236.92,-2500.07 1118.18,-2454.28"/>
<polygon fill="black" stroke="black" points="1119.85,-2450.79 1109.26,-2450.46 1117.33,-2457.32 1119.85,-2450.79"/>
</g>
<!-- platform_gnulinux.c -->
<g id="node41" class="node">
<title>platform_gnulinux.c</title>
<ellipse fill="none" stroke="black" cx="87.18" cy="-1009" rx="87.18" ry="18"/>
<text text-anchor="middle" x="87.18" y="-1003.95" font-family="Times,serif" font-size="14.00">platform_gnulinux.c</text>
</g>
<!-- platform_gnulinux.c&#45;&gt;system.h -->
<g id="edge58" class="edge">
<title>platform_gnulinux.c&#45;&gt;system.h</title>
<path fill="none" stroke="black" d="M92.43,-990.72C105.55,-948.72 141.99,-838.54 188.18,-754 341.86,-472.66 590.69,-171.25 664.14,-84.57"/>
<polygon fill="black" stroke="black" points="667.26,-87.3 671.07,-77.41 661.93,-82.77 667.26,-87.3"/>
</g>
<!-- platform_gnulinux.c&#45;&gt;platform.h -->
<g id="edge53" class="edge">
<title>platform_gnulinux.c&#45;&gt;platform.h</title>
<path fill="none" stroke="black" d="M116.31,-991.66C190.96,-949.8 388.93,-838.76 470.39,-793.07"/>
<polygon fill="black" stroke="black" points="471.95,-795.65 478.96,-787.71 468.52,-789.54 471.95,-795.65"/>
</g>
<!-- fio.c -->
<g id="node42" class="node">
<title>fio.c</title>
<ellipse fill="none" stroke="black" cx="296.18" cy="-1484" rx="27.81" ry="18"/>
<text text-anchor="middle" x="296.18" y="-1478.95" font-family="Times,serif" font-size="14.00">fio.c</text>
</g>
<!-- fio.c&#45;&gt;fio.h -->
<g id="edge55" class="edge">
<title>fio.c&#45;&gt;fio.h</title>
<path fill="none" stroke="black" d="M296.1,-1465.72C295.93,-1425.49 295.51,-1325.25 295.3,-1276.09"/>
<polygon fill="black" stroke="black" points="298.79,-1276.29 295.25,-1266.31 291.79,-1276.32 298.79,-1276.29"/>
</g>
<!-- vc_pipelines.c -->
<g id="node44" class="node">
<title>vc_pipelines.c</title>
<ellipse fill="none" stroke="black" cx="1232.18" cy="-2672" rx="64.15" ry="18"/>
<text text-anchor="middle" x="1232.18" y="-2666.95" font-family="Times,serif" font-size="14.00">vc_pipelines.c</text>
</g>
<!-- vc_pipelines.c&#45;&gt;vc_managed_types.h -->
<g id="edge64" class="edge">
<title>vc_pipelines.c&#45;&gt;vc_managed_types.h</title>
<path fill="none" stroke="black" d="M1220.38,-2654.03C1192.08,-2613.3 1120.18,-2509.83 1086.32,-2461.11"/>
<polygon fill="black" stroke="black" points="1088.67,-2459.35 1080.09,-2453.14 1082.92,-2463.35 1088.67,-2459.35"/>
</g>
<!-- vc_commands.c -->
<g id="node45" class="node">
<title>vc_commands.c</title>
<ellipse fill="none" stroke="black" cx="1078.18" cy="-2672" rx="71.82" ry="18"/>
<text text-anchor="middle" x="1078.18" y="-2666.95" font-family="Times,serif" font-size="14.00">vc_commands.c</text>
</g>
<!-- vc_commands.c&#45;&gt;vulcain.h -->
<g id="edge65" class="edge">
<title>vc_commands.c&#45;&gt;vulcain.h</title>
<path fill="none" stroke="black" d="M1068.59,-2653.81C1048.53,-2617.39 1001.42,-2529.45 970.18,-2452 937.79,-2371.7 909.48,-2273.12 896.59,-2225.86"/>
<polygon fill="black" stroke="black" points="899.71,-2224.99 893.72,-2216.25 892.95,-2226.82 899.71,-2224.99"/>
</g>
<!-- vc_commands.c&#45;&gt;vc_managed_types.h -->
<g id="edge74" class="edge">
<title>vc_commands.c&#45;&gt;vc_managed_types.h</title>
<path fill="none" stroke="black" d="M1077.44,-2653.65C1075.73,-2613.24 1071.47,-2512.58 1069.37,-2463.21"/>
<polygon fill="black" stroke="black" points="1072.83,-2463.22 1068.91,-2453.38 1065.84,-2463.52 1072.83,-2463.22"/>
</g>
<!-- hashmap.c -->
<g id="node46" class="node">
<title>hashmap.c</title>
<ellipse fill="none" stroke="black" cx="419.18" cy="-2197" rx="50.84" ry="18"/>
<text text-anchor="middle" x="419.18" y="-2191.95" font-family="Times,serif" font-size="14.00">hashmap.c</text>
</g>
<!-- hashmap.c&#45;&gt;hashmap.h -->
<g id="edge73" class="edge">
<title>hashmap.c&#45;&gt;hashmap.h</title>
<path fill="none" stroke="black" d="M419.18,-2178.65C419.18,-2138.24 419.18,-2037.58 419.18,-1988.21"/>
<polygon fill="black" stroke="black" points="422.68,-1988.38 419.18,-1978.38 415.68,-1988.38 422.68,-1988.38"/>
</g>
<!-- handle_allocator.c -->
<g id="node47" class="node">
<title>handle_allocator.c</title>
<ellipse fill="none" stroke="black" cx="780.18" cy="-1959" rx="78.48" ry="18"/>
<text text-anchor="middle" x="780.18" y="-1953.95" font-family="Times,serif" font-size="14.00">handle_allocator.c</text>
</g>
<!-- handle_allocator.c&#45;&gt;handle_allocator.h -->
<g id="edge75" class="edge">
<title>handle_allocator.c&#45;&gt;handle_allocator.h</title>
<path fill="none" stroke="black" d="M780.1,-1940.72C779.93,-1900.49 779.51,-1800.25 779.3,-1751.09"/>
<polygon fill="black" stroke="black" points="782.79,-1751.29 779.25,-1741.31 775.79,-1751.32 782.79,-1751.29"/>
</g>
<!-- tight_b8.c -->
<g id="node48" class="node">
<title>tight_b8.c</title>
<ellipse fill="none" stroke="black" cx="428.18" cy="-1484" rx="48.28" ry="18"/>
<text text-anchor="middle" x="428.18" y="-1478.95" font-family="Times,serif" font-size="14.00">tight_b8.c</text>
</g>
<!-- tight_b8.c&#45;&gt;tight_b8.h -->
<g id="edge82" class="edge">
<title>tight_b8.c&#45;&gt;tight_b8.h</title>
<path fill="none" stroke="black" d="M428.18,-1465.72C428.18,-1425.49 428.18,-1325.25 428.18,-1276.09"/>
<polygon fill="black" stroke="black" points="431.68,-1276.31 428.18,-1266.31 424.68,-1276.31 431.68,-1276.31"/>
</g>
<!-- pool_allocator.c -->
<g id="node49" class="node">
<title>pool_allocator.c</title>
<ellipse fill="none" stroke="black" cx="141.18" cy="-1959" rx="70.29" ry="18"/>
<text text-anchor="middle" x="141.18" y="-1953.95" font-family="Times,serif" font-size="14.00">pool_allocator.c</text>
</g>
<!-- pool_allocator.c&#45;&gt;pool_allocator.h -->
<g id="edge85" class="edge">
<title>pool_allocator.c&#45;&gt;pool_allocator.h</title>
<path fill="none" stroke="black" d="M141.18,-1940.72C141.18,-1900.49 141.18,-1800.25 141.18,-1751.09"/>
<polygon fill="black" stroke="black" points="144.68,-1751.31 141.18,-1741.31 137.68,-1751.31 144.68,-1751.31"/>
</g>
<!-- str.c -->
<g id="node50" class="node">
<title>str.c</title>
<ellipse fill="none" stroke="black" cx="1211.18" cy="-1959" rx="27" ry="18"/>
<text text-anchor="middle" x="1211.18" y="-1953.95" font-family="Times,serif" font-size="14.00">str.c</text>
</g>
<!-- str.c&#45;&gt;str.h -->
<g id="edge88" class="edge">
<title>str.c&#45;&gt;str.h</title>
<path fill="none" stroke="black" d="M1211.18,-1940.72C1211.18,-1900.49 1211.18,-1800.25 1211.18,-1751.09"/>
<polygon fill="black" stroke="black" points="1214.68,-1751.31 1211.18,-1741.31 1207.68,-1751.31 1214.68,-1751.31"/>
</g>
</g>
</svg>
