<?xml version="1.0" encoding="UTF-8" standalone="no"?>
<!DOCTYPE svg PUBLIC "-//W3C//DTD SVG 1.1//EN"
 "http://www.w3.org/Graphics/SVG/1.1/DTD/svg11.dtd">
<!-- Generated by graphviz version 8.0.5 (0)
 -->
<!-- Title: source tree Pages: 1 -->
<svg width="576pt" height="706pt"
 viewBox="0.00 0.00 576.00 706.38" xmlns="http://www.w3.org/2000/svg" xmlns:xlink="http://www.w3.org/1999/xlink">
<g id="graph0" class="graph" transform="scale(0.558735 0.558735) rotate(0) translate(4 1260.25)">
<title>source tree</title>
<polygon fill="white" stroke="none" points="-4,4 -4,-1260.25 1026.9,-1260.25 1026.9,4 -4,4"/>
<!-- pool_allocator.h -->
<g id="node1" class="node">
<title>pool_allocator.h</title>
<ellipse fill="none" stroke="black" cx="82.29" cy="-867" rx="70.8" ry="18"/>
<text text-anchor="middle" x="82.29" y="-861.95" font-family="Times,serif" font-size="14.00">pool_allocator.h</text>
</g>
<!-- types.h -->
<g id="node2" class="node">
<title>types.h</title>
<ellipse fill="none" stroke="black" cx="438.29" cy="-269" rx="37.53" ry="18"/>
<text text-anchor="middle" x="438.29" y="-263.95" font-family="Times,serif" font-size="14.00">types.h</text>
</g>
<!-- pool_allocator.h&#45;&gt;types.h -->
<g id="edge1" class="edge">
<title>pool_allocator.h&#45;&gt;types.h</title>
<path fill="none" stroke="black" d="M82.29,-848.75C82.29,-809.66 82.29,-711.29 82.29,-629 82.29,-629 82.29,-629 82.29,-507 82.29,-359.54 296.54,-298.24 392.62,-278.16"/>
<polygon fill="black" stroke="black" points="393.08,-281.44 402.18,-276.02 391.69,-274.58 393.08,-281.44"/>
</g>
<!-- base.h -->
<g id="node3" class="node">
<title>base.h</title>
<ellipse fill="none" stroke="black" cx="438.29" cy="-748" rx="34.46" ry="18"/>
<text text-anchor="middle" x="438.29" y="-742.95" font-family="Times,serif" font-size="14.00">base.h</text>
</g>
<!-- pool_allocator.h&#45;&gt;base.h -->
<g id="edge2" class="edge">
<title>pool_allocator.h&#45;&gt;base.h</title>
<path fill="none" stroke="black" d="M124.53,-852.12C194.28,-829.19 332.53,-783.76 399.76,-761.66"/>
<polygon fill="black" stroke="black" points="400.52,-764.77 408.92,-758.32 398.33,-758.12 400.52,-764.77"/>
</g>
<!-- compiler.h -->
<g id="node4" class="node">
<title>compiler.h</title>
<ellipse fill="none" stroke="black" cx="656.29" cy="-150" rx="50.84" ry="18"/>
<text text-anchor="middle" x="656.29" y="-144.95" font-family="Times,serif" font-size="14.00">compiler.h</text>
</g>
<!-- types.h&#45;&gt;compiler.h -->
<g id="edge3" class="edge">
<title>types.h&#45;&gt;compiler.h</title>
<path fill="none" stroke="black" d="M462.45,-255.03C500.59,-234.57 574.97,-194.64 619.69,-170.64"/>
<polygon fill="black" stroke="black" points="621.14,-173.3 628.3,-165.49 617.83,-167.13 621.14,-173.3"/>
</g>
<!-- base.h&#45;&gt;types.h -->
<g id="edge8" class="edge">
<title>base.h&#45;&gt;types.h</title>
<path fill="none" stroke="black" d="M438.29,-729.74C438.29,-658.53 438.29,-387.12 438.29,-298.31"/>
<polygon fill="black" stroke="black" points="441.79,-298.49 438.29,-288.49 434.79,-298.49 441.79,-298.49"/>
</g>
<!-- base.h&#45;&gt;compiler.h -->
<g id="edge10" class="edge">
<title>base.h&#45;&gt;compiler.h</title>
<path fill="none" stroke="black" d="M472.12,-743.48C532.52,-735.66 660.35,-711.98 743.29,-646 792.14,-607.13 799.44,-586.11 816.29,-526 849.31,-408.2 866.56,-356.31 804.29,-251 780.87,-211.4 734.89,-184.11 700.37,-168.17"/>
<polygon fill="black" stroke="black" points="702.07,-164.65 691.51,-163.78 699.22,-171.04 702.07,-164.65"/>
</g>
<!-- system.h -->
<g id="node9" class="node">
<title>system.h</title>
<ellipse fill="none" stroke="black" cx="656.29" cy="-30" rx="44.19" ry="18"/>
<text text-anchor="middle" x="656.29" y="-24.95" font-family="Times,serif" font-size="14.00">system.h</text>
</g>
<!-- base.h&#45;&gt;system.h -->
<g id="edge9" class="edge">
<title>base.h&#45;&gt;system.h</title>
<path fill="none" stroke="black" d="M406.03,-740.98C330.89,-726.41 147.16,-687.37 101.29,-646 52.32,-601.83 44.29,-574.95 44.29,-509 44.29,-509 44.29,-509 44.29,-268 44.29,-148.09 458.01,-65.15 605.13,-39.44"/>
<polygon fill="black" stroke="black" points="605.4,-42.77 614.66,-37.62 604.21,-35.87 605.4,-42.77"/>
</g>
<!-- platform.h -->
<g id="node10" class="node">
<title>platform.h</title>
<ellipse fill="none" stroke="black" cx="632.29" cy="-628" rx="50.33" ry="18"/>
<text text-anchor="middle" x="632.29" y="-622.95" font-family="Times,serif" font-size="14.00">platform.h</text>
</g>
<!-- base.h&#45;&gt;platform.h -->
<g id="edge11" class="edge">
<title>base.h&#45;&gt;platform.h</title>
<path fill="none" stroke="black" d="M460.17,-733.69C493.76,-713.26 558.34,-673.98 598.14,-649.77"/>
<polygon fill="black" stroke="black" points="599.72,-652.3 606.44,-644.11 596.08,-646.32 599.72,-652.3"/>
</g>
<!-- memory.h -->
<g id="node11" class="node">
<title>memory.h</title>
<ellipse fill="none" stroke="black" cx="525.29" cy="-508" rx="49.31" ry="18"/>
<text text-anchor="middle" x="525.29" y="-502.95" font-family="Times,serif" font-size="14.00">memory.h</text>
</g>
<!-- base.h&#45;&gt;memory.h -->
<g id="edge12" class="edge">
<title>base.h&#45;&gt;memory.h</title>
<path fill="none" stroke="black" d="M438.22,-729.51C438.66,-702.84 441.68,-650.82 457.29,-610 468.16,-581.58 488.3,-553.18 503.86,-533.77"/>
<polygon fill="black" stroke="black" points="506.99,-536.47 510.63,-526.52 501.58,-532.03 506.99,-536.47"/>
</g>
<!-- ansi.h -->
<g id="node12" class="node">
<title>ansi.h</title>
<ellipse fill="none" stroke="black" cx="762.29" cy="-269" rx="32.93" ry="18"/>
<text text-anchor="middle" x="762.29" y="-263.95" font-family="Times,serif" font-size="14.00">ansi.h</text>
</g>
<!-- base.h&#45;&gt;ansi.h -->
<g id="edge13" class="edge">
<title>base.h&#45;&gt;ansi.h</title>
<path fill="none" stroke="black" d="M470.48,-740.96C523.94,-729.69 632.55,-701.41 707.29,-646 761.28,-605.98 777.7,-589.64 799.29,-526 826.53,-445.71 793.47,-344.61 774.23,-297.07"/>
<polygon fill="black" stroke="black" points="777.1,-295.85 770.02,-287.96 770.64,-298.54 777.1,-295.85"/>
</g>
<!-- math.h -->
<g id="node13" class="node">
<title>math.h</title>
<ellipse fill="none" stroke="black" cx="851.29" cy="-628" rx="37.02" ry="18"/>
<text text-anchor="middle" x="851.29" y="-622.95" font-family="Times,serif" font-size="14.00">math.h</text>
</g>
<!-- base.h&#45;&gt;math.h -->
<g id="edge14" class="edge">
<title>base.h&#45;&gt;math.h</title>
<path fill="none" stroke="black" d="M468.47,-739.12C530.77,-722.74 678,-683.42 800.29,-646 803.88,-644.9 807.6,-643.73 811.32,-642.53"/>
<polygon fill="black" stroke="black" points="812.29,-645.57 820.71,-639.14 810.11,-638.92 812.29,-645.57"/>
</g>
<!-- logging.h -->
<g id="node14" class="node">
<title>logging.h</title>
<ellipse fill="none" stroke="black" cx="706.29" cy="-389" rx="46.23" ry="18"/>
<text text-anchor="middle" x="706.29" y="-383.95" font-family="Times,serif" font-size="14.00">logging.h</text>
</g>
<!-- base.h&#45;&gt;logging.h -->
<g id="edge15" class="edge">
<title>base.h&#45;&gt;logging.h</title>
<path fill="none" stroke="black" d="M472.71,-744.9C529.55,-739.36 641.68,-719.22 691.29,-646 700.26,-632.75 691.48,-626 691.29,-610 690.66,-556.66 684.8,-543.15 689.29,-490 691.37,-465.39 696.27,-437.73 700.28,-417.75"/>
<polygon fill="black" stroke="black" points="703.86,-418.73 702.45,-408.23 697,-417.32 703.86,-418.73"/>
</g>
<!-- fio.h -->
<g id="node15" class="node">
<title>fio.h</title>
<ellipse fill="none" stroke="black" cx="254.29" cy="-628" rx="28.32" ry="18"/>
<text text-anchor="middle" x="254.29" y="-622.95" font-family="Times,serif" font-size="14.00">fio.h</text>
</g>
<!-- base.h&#45;&gt;fio.h -->
<g id="edge16" class="edge">
<title>base.h&#45;&gt;fio.h</title>
<path fill="none" stroke="black" d="M417.18,-733.46C384.03,-712.2 319.7,-670.95 282.58,-647.14"/>
<polygon fill="black" stroke="black" points="285.07,-643.94 274.76,-641.49 281.29,-649.83 285.07,-643.94"/>
</g>
<!-- flags.h -->
<g id="node16" class="node">
<title>flags.h</title>
<ellipse fill="none" stroke="black" cx="336.29" cy="-628" rx="36" ry="18"/>
<text text-anchor="middle" x="336.29" y="-622.95" font-family="Times,serif" font-size="14.00">flags.h</text>
</g>
<!-- base.h&#45;&gt;flags.h -->
<g id="edge17" class="edge">
<title>base.h&#45;&gt;flags.h</title>
<path fill="none" stroke="black" d="M424.53,-731.09C407.2,-711.03 377.23,-676.36 357.09,-653.06"/>
<polygon fill="black" stroke="black" points="359.34,-651.32 350.15,-646.04 354.05,-655.89 359.34,-651.32"/>
</g>
<!-- compiler.h&#45;&gt;system.h -->
<g id="edge21" class="edge">
<title>compiler.h&#45;&gt;system.h</title>
<path fill="none" stroke="black" d="M656.29,-131.59C656.29,-112.59 656.29,-81.89 656.29,-59.39"/>
<polygon fill="black" stroke="black" points="659.79,-59.48 656.29,-49.48 652.79,-59.48 659.79,-59.48"/>
</g>
<!-- vc_handles.h -->
<g id="node5" class="node">
<title>vc_handles.h</title>
<ellipse fill="none" stroke="black" cx="808.29" cy="-987" rx="59.54" ry="18"/>
<text text-anchor="middle" x="808.29" y="-981.95" font-family="Times,serif" font-size="14.00">vc_handles.h</text>
</g>
<!-- vc_handles.h&#45;&gt;base.h -->
<g id="edge4" class="edge">
<title>vc_handles.h&#45;&gt;base.h</title>
<path fill="none" stroke="black" d="M818.3,-968.8C833.21,-940.65 856.74,-884.35 829.29,-849 786.76,-794.22 576.22,-764.37 482.92,-753.64"/>
<polygon fill="black" stroke="black" points="483.47,-750.07 473.14,-752.43 482.69,-757.03 483.47,-750.07"/>
</g>
<!-- vc_managed_types.h -->
<g id="node6" class="node">
<title>vc_managed_types.h</title>
<ellipse fill="none" stroke="black" cx="555.29" cy="-867" rx="89.23" ry="18"/>
<text text-anchor="middle" x="555.29" y="-861.95" font-family="Times,serif" font-size="14.00">vc_managed_types.h</text>
</g>
<!-- vc_handles.h&#45;&gt;vc_managed_types.h -->
<g id="edge5" class="edge">
<title>vc_handles.h&#45;&gt;vc_managed_types.h</title>
<path fill="none" stroke="black" d="M776.76,-971.29C732.05,-950.44 650.05,-912.2 599.35,-888.55"/>
<polygon fill="black" stroke="black" points="601.19,-885.08 590.65,-884.03 598.23,-891.42 601.19,-885.08"/>
</g>
<!-- handle_allocator.h -->
<g id="node7" class="node">
<title>handle_allocator.h</title>
<ellipse fill="none" stroke="black" cx="741.29" cy="-867" rx="78.99" ry="18"/>
<text text-anchor="middle" x="741.29" y="-861.95" font-family="Times,serif" font-size="14.00">handle_allocator.h</text>
</g>
<!-- vc_handles.h&#45;&gt;handle_allocator.h -->
<g id="edge6" class="edge">
<title>vc_handles.h&#45;&gt;handle_allocator.h</title>
<path fill="none" stroke="black" d="M798.55,-968.84C787.48,-949.35 769.29,-917.32 756.39,-894.59"/>
<polygon fill="black" stroke="black" points="759.03,-893.15 751.04,-886.18 752.94,-896.6 759.03,-893.15"/>
</g>
<!-- darray.h -->
<g id="node8" class="node">
<title>darray.h</title>
<ellipse fill="none" stroke="black" cx="940.29" cy="-748" rx="41.12" ry="18"/>
<text text-anchor="middle" x="940.29" y="-742.95" font-family="Times,serif" font-size="14.00">darray.h</text>
</g>
<!-- vc_handles.h&#45;&gt;darray.h -->
<g id="edge7" class="edge">
<title>vc_handles.h&#45;&gt;darray.h</title>
<path fill="none" stroke="black" d="M858.56,-977.15C908.1,-965.47 981.18,-939.6 1015.29,-885 1039.71,-845.91 998.08,-798.39 967.72,-771.12"/>
<polygon fill="black" stroke="black" points="970.36,-767.91 960.52,-763.99 965.77,-773.2 970.36,-767.91"/>
</g>
<!-- vc_managed_types.h&#45;&gt;base.h -->
<g id="edge20" class="edge">
<title>vc_managed_types.h&#45;&gt;base.h</title>
<path fill="none" stroke="black" d="M538.28,-848.99C517.98,-828.69 483.96,-794.67 461.32,-772.03"/>
<polygon fill="black" stroke="black" points="464.37,-770.13 454.83,-765.54 459.42,-775.08 464.37,-770.13"/>
</g>
<!-- handle_allocator.h&#45;&gt;base.h -->
<g id="edge31" class="edge">
<title>handle_allocator.h&#45;&gt;base.h</title>
<path fill="none" stroke="black" d="M702.3,-850.94C643.62,-828.28 533.34,-785.7 475.64,-763.42"/>
<polygon fill="black" stroke="black" points="477.09,-759.84 466.5,-759.51 474.57,-766.37 477.09,-759.84"/>
</g>
<!-- darray.h&#45;&gt;types.h -->
<g id="edge32" class="edge">
<title>darray.h&#45;&gt;types.h</title>
<path fill="none" stroke="black" d="M940.52,-729.51C940.32,-702.85 937.74,-650.83 922.29,-610 876.97,-490.21 863.98,-447.54 761.29,-371 677.06,-308.22 552.93,-283.87 485.72,-274.89"/>
<polygon fill="black" stroke="black" points="486.4,-271.32 476.04,-273.53 485.52,-278.26 486.4,-271.32"/>
</g>
<!-- darray.h&#45;&gt;memory.h -->
<g id="edge33" class="edge">
<title>darray.h&#45;&gt;memory.h</title>
<path fill="none" stroke="black" d="M939.93,-729.55C938.35,-700.52 930.89,-642.31 897.29,-610 852.04,-566.48 673.3,-532.5 581.05,-517.45"/>
<polygon fill="black" stroke="black" points="581.67,-513.85 571.24,-515.71 580.55,-520.76 581.67,-513.85"/>
</g>
<!-- darray.h&#45;&gt;math.h -->
<g id="edge34" class="edge">
<title>darray.h&#45;&gt;math.h</title>
<path fill="none" stroke="black" d="M927.91,-730.59C912.9,-710.69 887.45,-676.94 870.03,-653.85"/>
<polygon fill="black" stroke="black" points="872.38,-652.14 863.56,-646.27 866.79,-656.36 872.38,-652.14"/>
</g>
<!-- platform.h&#45;&gt;types.h -->
<g id="edge22" class="edge">
<title>platform.h&#45;&gt;types.h</title>
<path fill="none" stroke="black" d="M636.11,-609.78C644.83,-565.99 661.88,-448.37 613.29,-371 583.43,-323.45 522.49,-295.88 481.02,-281.89"/>
<polygon fill="black" stroke="black" points="482.25,-278.29 471.66,-278.54 480.1,-284.95 482.25,-278.29"/>
</g>
<!-- platform.h&#45;&gt;memory.h -->
<g id="edge23" class="edge">
<title>platform.h&#45;&gt;memory.h</title>
<path fill="none" stroke="black" d="M613.07,-611.09C592.88,-591.34 561.85,-557.43 542.45,-534.15"/>
<polygon fill="black" stroke="black" points="544.67,-532.34 535.64,-526.8 539.25,-536.76 544.67,-532.34"/>
</g>
<!-- memory.h&#45;&gt;types.h -->
<g id="edge24" class="edge">
<title>memory.h&#45;&gt;types.h</title>
<path fill="none" stroke="black" d="M510.63,-490.67C494.69,-471.92 469.81,-439.52 457.29,-407 443.41,-370.96 439.47,-326.13 438.46,-297.78"/>
<polygon fill="black" stroke="black" points="441.94,-297.97 438.19,-288.06 434.95,-298.15 441.94,-297.97"/>
</g>
<!-- memory.h&#45;&gt;platform.h -->
<g id="edge25" class="edge">
<title>memory.h&#45;&gt;platform.h</title>
<path fill="none" stroke="black" d="M544.33,-524.74C564.49,-544.43 595.56,-578.37 615.02,-601.72"/>
<polygon fill="black" stroke="black" points="612.82,-603.56 621.86,-609.09 618.25,-599.13 612.82,-603.56"/>
</g>
<!-- memory.h&#45;&gt;logging.h -->
<g id="edge27" class="edge">
<title>memory.h&#45;&gt;logging.h</title>
<path fill="none" stroke="black" d="M548.58,-491.94C580.49,-471.32 637.92,-434.2 673.97,-410.89"/>
<polygon fill="black" stroke="black" points="675.59,-413.37 682.09,-405 671.79,-407.49 675.59,-413.37"/>
</g>
<!-- memory_tags.h -->
<g id="node19" class="node">
<title>memory_tags.h</title>
<ellipse fill="none" stroke="black" cx="535.29" cy="-389" rx="69.26" ry="18"/>
<text text-anchor="middle" x="535.29" y="-383.95" font-family="Times,serif" font-size="14.00">memory_tags.h</text>
</g>
<!-- memory.h&#45;&gt;memory_tags.h -->
<g id="edge26" class="edge">
<title>memory.h&#45;&gt;memory_tags.h</title>
<path fill="none" stroke="black" d="M526.77,-489.74C528.38,-470.9 530.98,-440.46 532.88,-418.15"/>
<polygon fill="black" stroke="black" points="536.44,-418.6 533.81,-408.33 529.47,-418 536.44,-418.6"/>
</g>
<!-- logging.h&#45;&gt;types.h -->
<g id="edge49" class="edge">
<title>logging.h&#45;&gt;types.h</title>
<path fill="none" stroke="black" d="M676.33,-374.81C626.92,-353.06 528.53,-309.73 475.02,-286.17"/>
<polygon fill="black" stroke="black" points="476.82,-282.7 466.26,-281.87 474,-289.11 476.82,-282.7"/>
</g>
<!-- logging.h&#45;&gt;ansi.h -->
<g id="edge50" class="edge">
<title>logging.h&#45;&gt;ansi.h</title>
<path fill="none" stroke="black" d="M714.43,-370.84C723.69,-351.33 738.92,-319.24 749.71,-296.51"/>
<polygon fill="black" stroke="black" points="753.19,-298.33 754.32,-287.8 746.87,-295.33 753.19,-298.33"/>
</g>
<!-- fio.h&#45;&gt;types.h -->
<g id="edge51" class="edge">
<title>fio.h&#45;&gt;types.h</title>
<path fill="none" stroke="black" d="M262.67,-610.73C291.82,-554.18 388.92,-365.78 424.81,-296.16"/>
<polygon fill="black" stroke="black" points="428.17,-298.27 429.64,-287.78 421.95,-295.06 428.17,-298.27"/>
</g>
<!-- fio.h&#45;&gt;memory.h -->
<g id="edge52" class="edge">
<title>fio.h&#45;&gt;memory.h</title>
<path fill="none" stroke="black" d="M276.56,-616.67C281.4,-614.45 286.51,-612.13 291.29,-610 358.55,-580.04 437.25,-546.35 484.09,-526.44"/>
<polygon fill="black" stroke="black" points="485.32,-529.3 493.15,-522.17 482.58,-522.86 485.32,-529.3"/>
</g>
<!-- vc_pipelines.c -->
<g id="node17" class="node">
<title>vc_pipelines.c</title>
<ellipse fill="none" stroke="black" cx="625.29" cy="-1226" rx="64.15" ry="18"/>
<text text-anchor="middle" x="625.29" y="-1220.95" font-family="Times,serif" font-size="14.00">vc_pipelines.c</text>
</g>
<!-- vc_pipelines.c&#45;&gt;vc_managed_types.h -->
<g id="edge18" class="edge">
<title>vc_pipelines.c&#45;&gt;vc_managed_types.h</title>
<path fill="none" stroke="black" d="M619.39,-1207.86C607.03,-1171.16 578.48,-1082.07 565.29,-1005 558.92,-967.77 556.6,-924.17 555.76,-896.33"/>
<polygon fill="black" stroke="black" points="559.24,-896.34 555.49,-886.43 552.24,-896.52 559.24,-896.34"/>
</g>
<!-- vulcain.h -->
<g id="node18" class="node">
<title>vulcain.h</title>
<ellipse fill="none" stroke="black" cx="473.29" cy="-1107" rx="45.21" ry="18"/>
<text text-anchor="middle" x="473.29" y="-1101.95" font-family="Times,serif" font-size="14.00">vulcain.h</text>
</g>
<!-- vc_pipelines.c&#45;&gt;vulcain.h -->
<g id="edge19" class="edge">
<title>vc_pipelines.c&#45;&gt;vulcain.h</title>
<path fill="none" stroke="black" d="M604.16,-1208.73C577.54,-1188.25 531.71,-1152.97 501.96,-1130.07"/>
<polygon fill="black" stroke="black" points="504.34,-1126.71 494.28,-1123.39 500.07,-1132.26 504.34,-1126.71"/>
</g>
<!-- vulcain.h&#45;&gt;base.h -->
<g id="edge37" class="edge">
<title>vulcain.h&#45;&gt;base.h</title>
<path fill="none" stroke="black" d="M471.6,-1088.78C466,-1031.65 448,-847.99 441.05,-777.2"/>
<polygon fill="black" stroke="black" points="444.46,-777.08 440,-767.46 437.49,-777.76 444.46,-777.08"/>
</g>
<!-- vulcain.h&#45;&gt;vc_handles.h -->
<g id="edge36" class="edge">
<title>vulcain.h&#45;&gt;vc_handles.h</title>
<path fill="none" stroke="black" d="M506.33,-1094.36C565.83,-1073.4 691.24,-1029.23 760.25,-1004.92"/>
<polygon fill="black" stroke="black" points="761.14,-1007.97 769.41,-1001.34 758.82,-1001.36 761.14,-1007.97"/>
</g>
<!-- vulcain.h&#45;&gt;darray.h -->
<g id="edge39" class="edge">
<title>vulcain.h&#45;&gt;darray.h</title>
<path fill="none" stroke="black" d="M516.21,-1100.89C609.5,-1088.91 826.45,-1056.15 877.29,-1005 927.6,-954.39 898.19,-918.28 915.29,-849 921.3,-824.63 928.23,-796.95 933.27,-776.9"/>
<polygon fill="black" stroke="black" points="936.88,-777.89 935.92,-767.33 930.09,-776.18 936.88,-777.89"/>
</g>
<!-- vc_windowing_systems.h -->
<g id="node21" class="node">
<title>vc_windowing_systems.h</title>
<ellipse fill="none" stroke="black" cx="265.29" cy="-987" rx="107.14" ry="18"/>
<text text-anchor="middle" x="265.29" y="-981.95" font-family="Times,serif" font-size="14.00">vc_windowing_systems.h</text>
</g>
<!-- vulcain.h&#45;&gt;vc_windowing_systems.h -->
<g id="edge38" class="edge">
<title>vulcain.h&#45;&gt;vc_windowing_systems.h</title>
<path fill="none" stroke="black" d="M448.2,-1091.77C412.41,-1071.46 346.39,-1034.01 304.22,-1010.08"/>
<polygon fill="black" stroke="black" points="306.25,-1006.65 295.82,-1004.76 302.8,-1012.73 306.25,-1006.65"/>
</g>
<!-- vc_win_glfw.c -->
<g id="node20" class="node">
<title>vc_win_glfw.c</title>
<ellipse fill="none" stroke="black" cx="265.29" cy="-1107" rx="65.68" ry="18"/>
<text text-anchor="middle" x="265.29" y="-1101.95" font-family="Times,serif" font-size="14.00">vc_win_glfw.c</text>
</g>
<!-- vc_win_glfw.c&#45;&gt;vc_windowing_systems.h -->
<g id="edge28" class="edge">
<title>vc_win_glfw.c&#45;&gt;vc_windowing_systems.h</title>
<path fill="none" stroke="black" d="M265.29,-1088.59C265.29,-1069.59 265.29,-1038.89 265.29,-1016.39"/>
<polygon fill="black" stroke="black" points="268.79,-1016.48 265.29,-1006.48 261.79,-1016.48 268.79,-1016.48"/>
</g>
<!-- vc_windowing_systems.h&#45;&gt;base.h -->
<g id="edge29" class="edge">
<title>vc_windowing_systems.h&#45;&gt;base.h</title>
<path fill="none" stroke="black" d="M266.15,-968.9C268.27,-941.39 275.65,-886.58 301.29,-849 327.04,-811.24 371.93,-782.51 403.28,-765.74"/>
<polygon fill="black" stroke="black" points="404.68,-768.44 411.94,-760.72 401.45,-762.23 404.68,-768.44"/>
</g>
<!-- handle_allocator.c -->
<g id="node22" class="node">
<title>handle_allocator.c</title>
<ellipse fill="none" stroke="black" cx="652.29" cy="-987" rx="78.48" ry="18"/>
<text text-anchor="middle" x="652.29" y="-981.95" font-family="Times,serif" font-size="14.00">handle_allocator.c</text>
</g>
<!-- handle_allocator.c&#45;&gt;handle_allocator.h -->
<g id="edge30" class="edge">
<title>handle_allocator.c&#45;&gt;handle_allocator.h</title>
<path fill="none" stroke="black" d="M665.23,-968.84C680.13,-949.09 704.74,-916.45 721.92,-893.68"/>
<polygon fill="black" stroke="black" points="725.11,-896.27 728.33,-886.18 719.52,-892.06 725.11,-896.27"/>
</g>
<!-- vc_boilerplate.c -->
<g id="node23" class="node">
<title>vc_boilerplate.c</title>
<ellipse fill="none" stroke="black" cx="473.29" cy="-1226" rx="70.29" ry="18"/>
<text text-anchor="middle" x="473.29" y="-1220.95" font-family="Times,serif" font-size="14.00">vc_boilerplate.c</text>
</g>
<!-- vc_boilerplate.c&#45;&gt;vulcain.h -->
<g id="edge35" class="edge">
<title>vc_boilerplate.c&#45;&gt;vulcain.h</title>
<path fill="none" stroke="black" d="M473.29,-1207.74C473.29,-1188.9 473.29,-1158.46 473.29,-1136.15"/>
<polygon fill="black" stroke="black" points="476.79,-1136.33 473.29,-1126.33 469.79,-1136.33 476.79,-1136.33"/>
</g>
<!-- platform_gnulinux.c -->
<g id="node24" class="node">
<title>platform_gnulinux.c</title>
<ellipse fill="none" stroke="black" cx="713.29" cy="-748" rx="87.18" ry="18"/>
<text text-anchor="middle" x="713.29" y="-742.95" font-family="Times,serif" font-size="14.00">platform_gnulinux.c</text>
</g>
<!-- platform_gnulinux.c&#45;&gt;system.h -->
<g id="edge40" class="edge">
<title>platform_gnulinux.c&#45;&gt;system.h</title>
<path fill="none" stroke="black" d="M758.2,-732.17C799.3,-716.55 859.32,-688.3 897.29,-646 941.34,-596.92 954.29,-574.95 954.29,-509 954.29,-509 954.29,-509 954.29,-268 954.29,-140.9 786.18,-71.03 702.49,-44.12"/>
<polygon fill="black" stroke="black" points="703.82,-40.55 693.24,-40.9 701.73,-47.23 703.82,-40.55"/>
</g>
<!-- platform_gnulinux.c&#45;&gt;platform.h -->
<g id="edge41" class="edge">
<title>platform_gnulinux.c&#45;&gt;platform.h</title>
<path fill="none" stroke="black" d="M701.51,-729.84C687.94,-710.07 665.49,-677.37 649.86,-654.59"/>
<polygon fill="black" stroke="black" points="652.37,-653.06 643.82,-646.8 646.59,-657.02 652.37,-653.06"/>
</g>
<!-- tight_b8.h -->
<g id="node25" class="node">
<title>tight_b8.h</title>
<ellipse fill="none" stroke="black" cx="159.29" cy="-628" rx="48.79" ry="18"/>
<text text-anchor="middle" x="159.29" y="-622.95" font-family="Times,serif" font-size="14.00">tight_b8.h</text>
</g>
<!-- tight_b8.h&#45;&gt;types.h -->
<g id="edge42" class="edge">
<title>tight_b8.h&#45;&gt;types.h</title>
<path fill="none" stroke="black" d="M172.37,-610.26C217.33,-552.74 365.62,-362.98 418.96,-294.73"/>
<polygon fill="black" stroke="black" points="422.16,-297.33 425.56,-287.29 416.64,-293.02 422.16,-297.33"/>
</g>
<!-- tight_b8.h&#45;&gt;memory.h -->
<g id="edge43" class="edge">
<title>tight_b8.h&#45;&gt;memory.h</title>
<path fill="none" stroke="black" d="M195.05,-615.47C261.66,-594 404.65,-547.89 478.71,-524.02"/>
<polygon fill="black" stroke="black" points="479.67,-527.06 488.11,-520.66 477.52,-520.4 479.67,-527.06"/>
</g>
<!-- test.h -->
<g id="node26" class="node">
<title>test.h</title>
<ellipse fill="none" stroke="black" cx="341.29" cy="-867" rx="30.88" ry="18"/>
<text text-anchor="middle" x="341.29" y="-861.95" font-family="Times,serif" font-size="14.00">test.h</text>
</g>
<!-- test.h&#45;&gt;base.h -->
<g id="edge44" class="edge">
<title>test.h&#45;&gt;base.h</title>
<path fill="none" stroke="black" d="M354.37,-850.22C370.79,-830.42 399.11,-796.26 418.26,-773.16"/>
<polygon fill="black" stroke="black" points="421.42,-775.84 425.11,-765.9 416.03,-771.37 421.42,-775.84"/>
</g>
<!-- vc_handles.c -->
<g id="node27" class="node">
<title>vc_handles.c</title>
<ellipse fill="none" stroke="black" cx="808.29" cy="-1107" rx="59.03" ry="18"/>
<text text-anchor="middle" x="808.29" y="-1101.95" font-family="Times,serif" font-size="14.00">vc_handles.c</text>
</g>
<!-- vc_handles.c&#45;&gt;vc_handles.h -->
<g id="edge45" class="edge">
<title>vc_handles.c&#45;&gt;vc_handles.h</title>
<path fill="none" stroke="black" d="M808.29,-1088.59C808.29,-1069.59 808.29,-1038.89 808.29,-1016.39"/>
<polygon fill="black" stroke="black" points="811.79,-1016.48 808.29,-1006.48 804.79,-1016.48 811.79,-1016.48"/>
</g>
<!-- main.c -->
<g id="node28" class="node">
<title>main.c</title>
<ellipse fill="none" stroke="black" cx="348.29" cy="-1226" rx="36.51" ry="18"/>
<text text-anchor="middle" x="348.29" y="-1220.95" font-family="Times,serif" font-size="14.00">main.c</text>
</g>
<!-- main.c&#45;&gt;base.h -->
<g id="edge46" class="edge">
<title>main.c&#45;&gt;base.h</title>
<path fill="none" stroke="black" d="M351.55,-1207.78C365,-1136.64 416.31,-865.26 433,-776.95"/>
<polygon fill="black" stroke="black" points="436.62,-777.68 435.04,-767.2 429.74,-776.37 436.62,-777.68"/>
</g>
<!-- main.c&#45;&gt;vulcain.h -->
<g id="edge47" class="edge">
<title>main.c&#45;&gt;vulcain.h</title>
<path fill="none" stroke="black" d="M364.63,-1209.7C385.92,-1189.78 423.34,-1154.75 448.23,-1131.46"/>
<polygon fill="black" stroke="black" points="450.23,-1134.44 455.14,-1125.05 445.45,-1129.33 450.23,-1134.44"/>
</g>
<!-- darray.c -->
<g id="node29" class="node">
<title>darray.c</title>
<ellipse fill="none" stroke="black" cx="965.29" cy="-867" rx="40.6" ry="18"/>
<text text-anchor="middle" x="965.29" y="-861.95" font-family="Times,serif" font-size="14.00">darray.c</text>
</g>
<!-- darray.c&#45;&gt;darray.h -->
<g id="edge48" class="edge">
<title>darray.c&#45;&gt;darray.h</title>
<path fill="none" stroke="black" d="M961.6,-848.74C957.56,-829.81 951.01,-799.18 946.24,-776.85"/>
<polygon fill="black" stroke="black" points="949.51,-776.38 943.99,-767.33 942.66,-777.85 949.51,-776.38"/>
</g>
<!-- fio.c -->
<g id="node30" class="node">
<title>fio.c</title>
<ellipse fill="none" stroke="black" cx="254.29" cy="-748" rx="27.81" ry="18"/>
<text text-anchor="middle" x="254.29" y="-742.95" font-family="Times,serif" font-size="14.00">fio.c</text>
</g>
<!-- fio.c&#45;&gt;fio.h -->
<g id="edge53" class="edge">
<title>fio.c&#45;&gt;fio.h</title>
<path fill="none" stroke="black" d="M254.29,-729.59C254.29,-710.59 254.29,-679.89 254.29,-657.39"/>
<polygon fill="black" stroke="black" points="257.79,-657.48 254.29,-647.48 250.79,-657.48 257.79,-657.48"/>
</g>
<!-- logging.c -->
<g id="node31" class="node">
<title>logging.c</title>
<ellipse fill="none" stroke="black" cx="744.29" cy="-508" rx="45.72" ry="18"/>
<text text-anchor="middle" x="744.29" y="-502.95" font-family="Times,serif" font-size="14.00">logging.c</text>
</g>
<!-- logging.c&#45;&gt;logging.h -->
<g id="edge54" class="edge">
<title>logging.c&#45;&gt;logging.h</title>
<path fill="none" stroke="black" d="M738.68,-489.74C732.51,-470.73 722.5,-439.9 715.23,-417.54"/>
<polygon fill="black" stroke="black" points="718.34,-416.76 711.92,-408.33 711.68,-418.93 718.34,-416.76"/>
</g>
<!-- tight_b8.c -->
<g id="node32" class="node">
<title>tight_b8.c</title>
<ellipse fill="none" stroke="black" cx="159.29" cy="-748" rx="48.28" ry="18"/>
<text text-anchor="middle" x="159.29" y="-742.95" font-family="Times,serif" font-size="14.00">tight_b8.c</text>
</g>
<!-- tight_b8.c&#45;&gt;tight_b8.h -->
<g id="edge55" class="edge">
<title>tight_b8.c&#45;&gt;tight_b8.h</title>
<path fill="none" stroke="black" d="M159.29,-729.59C159.29,-710.59 159.29,-679.89 159.29,-657.39"/>
<polygon fill="black" stroke="black" points="162.79,-657.48 159.29,-647.48 155.79,-657.48 162.79,-657.48"/>
</g>
<!-- memory.c -->
<g id="node33" class="node">
<title>memory.c</title>
<ellipse fill="none" stroke="black" cx="515.29" cy="-628" rx="48.79" ry="18"/>
<text text-anchor="middle" x="515.29" y="-622.95" font-family="Times,serif" font-size="14.00">memory.c</text>
</g>
<!-- memory.c&#45;&gt;memory.h -->
<g id="edge56" class="edge">
<title>memory.c&#45;&gt;memory.h</title>
<path fill="none" stroke="black" d="M516.77,-609.59C518.38,-590.59 520.98,-559.89 522.88,-537.39"/>
<polygon fill="black" stroke="black" points="526.45,-537.74 523.81,-527.48 519.48,-537.15 526.45,-537.74"/>
</g>
<!-- pool_allocator.c -->
<g id="node34" class="node">
<title>pool_allocator.c</title>
<ellipse fill="none" stroke="black" cx="70.29" cy="-987" rx="70.29" ry="18"/>
<text text-anchor="middle" x="70.29" y="-981.95" font-family="Times,serif" font-size="14.00">pool_allocator.c</text>
</g>
<!-- pool_allocator.c&#45;&gt;pool_allocator.h -->
<g id="edge57" class="edge">
<title>pool_allocator.c&#45;&gt;pool_allocator.h</title>
<path fill="none" stroke="black" d="M72.06,-968.59C73.99,-949.59 77.12,-918.89 79.4,-896.39"/>
<polygon fill="black" stroke="black" points="82.98,-896.79 80.51,-886.48 76.02,-896.08 82.98,-896.79"/>
</g>
</g>
</svg>
